<?xml version="1.0" standalone="no"?>
<!DOCTYPE svg PUBLIC "-//W3C//DTD SVG 20010904//EN"
 "http://www.w3.org/TR/2001/REC-SVG-20010904/DTD/svg10.dtd">
<svg version="1.0" xmlns="http://www.w3.org/2000/svg"
 width="512.000000pt" height="435.000000pt" viewBox="0 0 512.000000 435.000000"
 preserveAspectRatio="xMidYMid meet">

<g transform="translate(0.000000,435.000000) scale(0.100000,-0.100000)"
fill="#000000" stroke="none">
<path d="M3023 4118 c-22 -34 -37 -69 -60 -131 -21 -60 -23 -83 -21 -177 3
-122 16 -93 -114 -264 -33 -43 -58 -86 -58 -99 0 -70 162 -209 288 -246 53
-15 72 -4 72 43 0 60 58 106 134 106 27 0 39 -7 57 -31 21 -30 24 -31 80 -27
105 8 165 70 189 198 6 29 16 61 24 69 18 22 25 46 18 58 -7 10 -68 33 -138
52 -46 12 -104 64 -104 93 0 20 -14 27 -107 54 -91 25 -98 37 -96 148 l2 91
-25 -78 c-16 -48 -30 -77 -37 -74 -7 2 -27 54 -46 115 -19 62 -38 112 -42 112
-4 0 -11 -6 -16 -12z"/>
<path d="M2478 4080 c-525 -50 -974 -399 -1154 -898 -70 -191 -97 -413 -75
-607 16 -142 26 -174 51 -168 24 6 24 3 5 123 -66 429 104 892 433 1175 187
161 411 271 636 312 103 19 379 22 458 6 43 -9 47 -8 52 11 3 11 3 22 1 25
-19 18 -287 32 -407 21z"/>
<path d="M3692 3520 c-11 -17 -7 -27 27 -77 96 -141 170 -329 202 -516 65
-373 -56 -799 -307 -1075 -46 -51 -54 -66 -54 -99 l1 -38 31 35 c17 19 51 57
75 84 131 146 240 371 294 606 31 138 31 401 -1 550 -25 121 -73 254 -126 355
-41 78 -115 195 -124 195 -3 0 -11 -9 -18 -20z"/>
<path d="M2696 3288 c-45 -95 -45 -95 -306 -101 -188 -4 -238 -8 -305 -26
-150 -40 -163 -47 -191 -104 -15 -29 -42 -74 -62 -102 -20 -27 -69 -113 -110
-189 -74 -141 -181 -307 -245 -381 -19 -22 -59 -54 -88 -72 -45 -27 -66 -33
-126 -35 -40 -2 -73 -6 -73 -9 0 -3 19 -16 42 -29 83 -46 164 -26 266 65 54
48 249 276 259 301 3 8 11 14 19 14 21 0 18 -90 -5 -151 -12 -31 -41 -73 -75
-109 l-56 -59 0 -315 0 -315 26 -20 c39 -31 89 -28 125 8 36 37 36 51 0 115
-47 85 -55 131 -48 296 7 196 15 212 134 308 50 40 96 72 103 72 7 0 10 -10 6
-27 -37 -168 -45 -309 -25 -405 15 -71 65 -175 91 -189 12 -6 43 -9 71 -6 85
8 103 64 33 101 -68 36 -79 61 -79 173 0 124 13 155 116 287 43 55 104 134
134 174 31 39 61 72 68 72 14 0 93 -57 144 -104 80 -74 114 -179 130 -406 13
-176 18 -532 8 -547 -12 -18 -200 -17 -261 1 -66 20 -86 41 -86 88 0 35 -2 39
-22 36 -20 -3 -23 -10 -26 -56 -4 -67 10 -89 79 -127 l54 -29 235 -1 c303 0
625 16 642 33 9 9 7 18 -10 42 -28 37 -28 51 1 78 27 26 37 28 37 7 0 -9 11
-38 25 -66 30 -59 57 -72 127 -63 53 7 74 29 43 46 -9 6 -26 19 -37 30 -18 18
-19 31 -16 191 4 169 5 173 37 247 40 91 46 183 17 269 -30 88 0 120 126 135
62 8 89 31 103 89 12 46 -105 167 -162 167 -29 0 -45 15 -52 50 l-6 32 -135
-153 c-75 -85 -155 -179 -180 -209 -25 -30 -50 -61 -57 -68 -7 -7 -20 -26 -30
-42 -9 -17 -21 -30 -25 -30 -25 0 6 192 58 360 48 154 32 402 -30 458 -11 11
-54 30 -94 42 -103 31 -156 64 -238 145 l-71 70 -27 -57z m210 -930 c-3 -46
-8 -128 -12 -183 -5 -89 -23 -194 -40 -239 -3 -9 -15 -16 -25 -16 -18 0 -19
11 -19 222 l0 221 42 39 c23 21 45 38 50 38 5 0 7 -37 4 -82z"/>
<path d="M3184 3058 c10 -79 58 -137 69 -82 10 53 -27 134 -61 134 -12 0 -13
-10 -8 -52z"/>
<path d="M1398 2078 c11 -18 28 -49 38 -68 11 -19 39 -64 64 -99 l45 -64 3 41
c2 32 -3 50 -21 74 -14 18 -39 59 -57 91 -28 49 -36 57 -62 57 l-30 0 20 -32z"/>
<path d="M1857 1596 c-17 -13 -13 -17 40 -49 141 -85 291 -144 453 -179 134
-28 373 -28 523 1 108 20 189 49 97 33 -25 -4 -157 -7 -295 -6 -225 1 -259 3
-335 23 -169 44 -305 99 -412 167 -43 28 -47 28 -71 10z"/>
<path d="M1285 1084 c-6 -2 -9 -120 -7 -330 2 -295 1 -329 -14 -345 -16 -18
-15 -19 36 -19 48 0 51 2 39 17 -11 13 -15 85 -17 350 -3 336 -4 341 -37 327z"/>
<path d="M4480 1084 c-13 -4 -15 -48 -12 -333 2 -291 1 -331 -13 -345 -15 -15
-12 -16 35 -16 47 0 50 1 40 19 -6 13 -10 142 -10 350 0 344 1 336 -40 325z"/>
<path d="M644 994 c14 -13 16 -53 16 -285 0 -167 -4 -278 -10 -290 -9 -16 -7
-19 13 -19 14 0 40 -3 58 -6 l34 -7 -22 22 c-23 22 -23 25 -23 296 0 272 0
274 22 289 21 15 19 16 -40 16 -58 0 -62 -1 -48 -16z"/>
<path d="M1050 1003 c14 -3 33 -12 44 -21 17 -16 18 -16 15 3 -3 16 -13 20
-44 22 -23 0 -29 -1 -15 -4z"/>
<path d="M3772 898 c-1 -9 -16 -28 -33 -42 -20 -17 -25 -26 -15 -26 14 0 16
-23 16 -186 0 -108 4 -193 10 -205 11 -20 60 -49 82 -48 7 0 3 5 -9 11 -12 6
-25 18 -30 27 -4 9 -10 122 -13 251 -3 129 -7 228 -8 218z"/>
<path d="M2175 829 c57 -16 65 -47 65 -236 0 -118 -4 -173 -12 -181 -7 -7 -10
-12 -8 -13 3 0 24 -1 47 -2 36 -2 40 0 32 15 -5 9 -9 88 -9 175 0 141 -2 162
-20 191 -20 33 -73 63 -107 61 -10 0 -4 -5 12 -10z"/>
<path d="M2834 827 c-49 -15 -72 -31 -108 -80 -54 -71 -46 -229 13 -296 37
-41 106 -71 161 -70 l45 1 -48 8 c-100 17 -160 99 -160 220 -1 74 17 120 65
169 17 18 44 35 60 38 15 3 28 9 28 14 0 11 -4 11 -56 -4z"/>
<path d="M3440 830 c19 -5 45 -20 57 -35 22 -25 23 -34 23 -200 0 -105 -4
-176 -10 -180 -22 -14 -7 -24 33 -22 l43 2 -13 35 c-7 22 -12 92 -13 186 0
139 -2 152 -21 173 -26 27 -79 51 -111 50 -16 -1 -12 -4 12 -9z"/>
<path d="M1533 801 c-74 -53 -101 -127 -88 -236 13 -104 105 -187 205 -184
l45 2 -40 6 c-72 13 -115 46 -146 114 -21 47 -25 131 -8 192 13 45 84 121 121
128 16 3 12 5 -13 6 -25 1 -48 -8 -76 -28z"/>
<path d="M1688 823 c7 -3 16 -2 19 1 4 3 -2 6 -13 5 -11 0 -14 -3 -6 -6z"/>
<path d="M1944 808 c3 -13 6 -36 6 -51 l0 -28 23 27 c31 35 25 74 -10 74 -21
0 -24 -4 -19 -22z"/>
<path d="M2510 801 c21 -27 21 -38 18 -217 l-3 -190 30 2 c17 1 34 2 38 3 4 1
3 10 -3 20 -5 11 -10 86 -10 171 0 163 -7 193 -54 224 -36 23 -40 20 -16 -13z"/>
<path d="M3185 821 c-3 -5 -1 -12 5 -16 5 -3 10 -23 10 -43 l0 -37 20 25 c11
14 20 37 20 53 0 22 -4 27 -24 27 -14 0 -27 -4 -31 -9z"/>
<path d="M4251 801 c32 -32 31 -27 29 -214 -1 -59 2 -128 6 -152 6 -43 8 -45
38 -44 17 0 25 3 19 6 -10 3 -13 46 -13 164 0 182 -8 214 -63 247 -47 30 -51
28 -16 -7z"/>
<path d="M1974 733 c-16 -23 -20 -54 -24 -168 -3 -77 -9 -147 -13 -155 -6 -13
-1 -15 33 -12 38 4 39 5 32 31 -4 14 -7 95 -6 179 0 83 0 152 -1 152 -2 0 -11
-12 -21 -27z"/>
<path d="M3996 745 c-9 -25 4 -45 30 -45 19 0 24 5 24 24 0 33 -43 50 -54 21z"/>
<path d="M998 737 c-15 -12 -15 -14 3 -25 17 -11 19 -9 19 13 0 29 0 28 -22
12z"/>
<path d="M3218 706 c-14 -28 -18 -63 -18 -147 0 -61 -5 -119 -11 -131 -14 -25
-7 -31 36 -33 29 -1 34 2 28 15 -4 8 -10 87 -13 174 l-5 159 -17 -37z"/>
<path d="M1810 701 c0 -11 -6 -22 -12 -24 -8 -3 -6 -6 5 -6 12 -1 17 7 17 24
0 14 -2 25 -5 25 -3 0 -5 -9 -5 -19z"/>
<path d="M3052 690 c-10 -17 -10 -20 3 -20 8 0 15 9 15 20 0 11 -1 20 -3 20
-1 0 -8 -9 -15 -20z"/>
<path d="M4014 586 c-36 -31 -39 -38 -39 -84 0 -36 6 -56 20 -72 24 -27 75
-50 107 -49 18 1 16 3 -10 10 -58 17 -91 104 -61 162 6 12 21 32 32 45 33 36
-3 28 -49 -12z"/>
<path d="M1101 433 c-1 -12 -47 -28 -101 -37 -14 -2 3 -4 38 -5 64 -1 81 10
69 41 -4 9 -6 10 -6 1z"/>
<path d="M2010 125 l0 -85 70 0 c56 0 70 3 70 15 0 12 -13 15 -55 15 l-55 0 0
70 c0 56 -3 70 -15 70 -12 0 -15 -16 -15 -85z"/>
<path d="M2551 141 c-12 -39 -24 -77 -27 -86 -4 -10 0 -15 10 -15 9 0 19 7 22
15 8 20 60 20 68 0 3 -8 12 -15 20 -15 16 0 14 6 -29 130 -21 59 -40 50 -64
-29z m54 -28 c5 -19 2 -23 -14 -23 -21 0 -26 15 -15 45 8 19 19 10 29 -22z"/>
<path d="M3030 125 l0 -85 48 0 c72 0 90 17 87 86 -2 69 -18 84 -87 84 l-48 0
0 -85z m94 49 c33 -13 17 -34 -24 -34 -33 0 -40 3 -40 20 0 21 30 27 64 14z
m14 -86 c3 -15 -4 -18 -37 -18 -40 0 -58 11 -46 31 11 17 79 7 83 -13z"/>
</g>
</svg>
