<?xml version="1.0" standalone="no"?>
<!DOCTYPE svg PUBLIC "-//W3C//DTD SVG 20010904//EN"
 "http://www.w3.org/TR/2001/REC-SVG-20010904/DTD/svg10.dtd">
<svg version="1.0" xmlns="http://www.w3.org/2000/svg"
 width="512.000000pt" height="168.000000pt" viewBox="0 0 512.000000 168.000000"
 preserveAspectRatio="xMidYMid meet">

<g transform="translate(0.000000,168.000000) scale(0.100000,-0.100000)"
fill="#000000" stroke="none">
<path d="M975 1411 c-3 -5 -1 -12 5 -16 6 -4 10 -137 10 -378 0 -321 -2 -376
-16 -395 -15 -22 -15 -22 40 -22 l55 0 -15 28 c-11 22 -14 97 -14 410 l0 382
-29 0 c-17 0 -32 -4 -36 -9z"/>
<path d="M4745 1411 c-3 -5 -1 -12 5 -16 6 -4 10 -138 10 -382 0 -336 -2 -378
-17 -395 -15 -17 -14 -18 46 -18 l62 0 -15 22 c-14 19 -16 75 -16 410 l0 388
-34 0 c-19 0 -37 -4 -41 -9z"/>
<path d="M236 1309 c18 -20 19 -40 19 -344 0 -303 -1 -324 -19 -344 l-19 -21
281 0 c165 0 282 4 282 9 0 5 3 17 7 27 6 16 2 15 -29 -4 -33 -21 -47 -22
-225 -22 -144 0 -193 3 -201 13 -7 8 -12 78 -12 182 l-2 170 165 3 c140 2 167
0 181 -13 15 -15 16 -13 16 20 0 35 0 36 -22 21 -18 -13 -54 -16 -180 -16
l-158 0 0 155 c0 142 1 155 19 165 32 16 364 13 406 -4 19 -8 35 -20 35 -27 0
-7 2 -10 5 -7 4 3 3 17 -1 32 l-6 26 -281 0 -280 0 19 -21z"/>
<path d="M3933 1204 c-14 -44 -36 -69 -68 -77 -19 -4 -19 -5 2 -6 21 -1 21 -3
25 -230 3 -212 4 -231 23 -251 25 -28 76 -50 112 -49 27 1 26 1 -6 9 -67 16
-65 9 -71 343 -4 261 -7 296 -17 261z"/>
<path d="M2005 1123 c112 -24 115 -32 115 -286 0 -174 -2 -208 -16 -221 -14
-15 -10 -16 46 -16 l61 0 -15 22 c-13 18 -16 57 -16 208 -1 154 -4 191 -18
220 -20 40 -71 69 -135 74 -23 2 -33 2 -22 -1z"/>
<path d="M2343 1123 c9 -2 23 -2 30 0 6 3 -1 5 -18 5 -16 0 -22 -2 -12 -5z"/>
<path d="M3478 1123 c12 -2 30 -2 40 0 9 3 -1 5 -23 4 -22 0 -30 -2 -17 -4z"/>
<path d="M4370 1123 c-73 -12 -128 -41 -159 -85 -9 -13 -20 -70 -28 -142 -17
-169 -16 -205 7 -243 33 -54 70 -63 263 -63 164 0 170 1 154 18 -15 16 -17 46
-17 206 0 199 -4 219 -52 262 -33 31 -119 55 -168 47z m175 -143 c18 0 18 -2
3 -35 -8 -19 -18 -25 -37 -23 -18 2 -26 -2 -29 -16 -3 -13 0 -16 8 -11 10 6
11 1 7 -16 -3 -13 -8 -40 -12 -59 l-6 -35 24 28 c15 18 32 28 43 25 23 -4 33
-48 11 -48 -10 0 -16 -17 -21 -56 -3 -30 -4 -59 -1 -63 6 -11 -45 -21 -105
-21 -59 0 -80 7 -80 28 0 12 3 13 12 4 7 -7 21 -12 31 -12 17 0 19 6 15 59 -2
33 -10 67 -18 75 -12 15 -15 15 -37 -6 -21 -19 -24 -29 -19 -60 5 -30 3 -38
-8 -38 -16 0 -33 61 -21 79 4 7 0 8 -10 5 -13 -5 -16 -18 -13 -58 2 -40 0 -51
-12 -51 -24 0 -26 91 -3 119 10 11 4 9 -13 -6 -29 -27 -64 -37 -64 -19 0 5 10
11 23 15 13 3 33 26 50 56 29 52 56 70 106 70 15 0 32 5 39 12 9 9 16 8 30 -5
10 -9 22 -17 27 -17 4 0 -4 9 -19 21 -25 20 -26 22 -11 45 8 13 15 34 15 47 0
38 11 39 47 2 19 -19 40 -35 48 -35z"/>
<path d="M1334 1107 c-53 -21 -94 -57 -122 -110 -24 -46 -27 -63 -27 -147 1
-109 18 -154 79 -208 38 -33 120 -63 170 -61 27 1 24 3 -22 17 -112 36 -163
107 -170 240 l-5 82 39 2 c37 1 37 1 7 5 -43 6 -43 26 1 88 49 68 85 88 159
88 38 0 54 3 42 8 -30 11 -116 9 -151 -4z"/>
<path d="M1793 1111 c-26 -5 -30 -9 -23 -21 5 -8 10 -35 10 -60 l0 -44 17 24
c9 14 22 30 28 37 9 8 10 80 1 72 0 -1 -16 -4 -33 -8z"/>
<path d="M2407 1110 c13 -5 32 -24 43 -42 18 -30 20 -51 20 -232 0 -172 -2
-202 -17 -218 -15 -17 -13 -18 48 -18 44 0 59 3 49 10 -12 7 -16 46 -20 212
-5 193 -6 205 -28 236 -22 30 -78 63 -106 61 -6 0 -1 -4 11 -9z"/>
<path d="M2781 1094 c-146 -73 -177 -317 -56 -439 44 -44 122 -76 184 -74 33
1 31 2 -24 17 -111 31 -175 128 -175 265 l0 57 33 1 c30 2 31 2 4 6 -23 4 -27
8 -21 26 29 98 122 163 219 152 32 -4 35 -3 15 4 -51 18 -124 12 -179 -15z"/>
<path d="M3267 1112 c-29 -3 -36 -6 -28 -15 5 -7 13 -34 18 -61 l8 -48 23 32
c16 20 22 41 20 63 -3 31 -5 32 -41 29z"/>
<path d="M3570 1102 c62 -30 70 -62 70 -267 0 -137 -4 -187 -14 -207 l-15 -28
54 0 54 0 -15 28 c-10 20 -14 70 -14 208 0 172 -1 183 -23 215 -23 35 -77 68
-112 69 -14 0 -9 -5 15 -18z"/>
<path d="M1530 1083 c14 -9 34 -23 46 -32 11 -9 5 -1 -15 17 -19 17 -39 32
-45 32 -6 0 1 -7 14 -17z"/>
<path d="M2990 1097 c0 -3 12 -12 26 -22 15 -9 23 -12 20 -6 -7 11 -46 35 -46
28z"/>
<path d="M3050 1046 c0 -2 8 -10 18 -17 15 -13 16 -12 3 4 -13 16 -21 21 -21
13z"/>
<path d="M1606 1007 c3 -10 9 -15 12 -12 3 3 0 11 -7 18 -10 9 -11 8 -5 -6z"/>
<path d="M1803 983 c-21 -38 -23 -56 -23 -190 0 -118 -3 -153 -16 -171 -15
-22 -15 -22 41 -22 55 0 56 0 43 23 -9 15 -15 84 -18 212 l-5 190 -22 -42z"/>
<path d="M3285 985 c-17 -26 -21 -52 -25 -186 -4 -136 -8 -160 -24 -178 l-19
-21 63 0 c57 0 61 1 49 17 -10 12 -15 66 -19 207 l-5 190 -20 -29z"/>
<path d="M1615 958 c-7 -16 -22 -25 -50 -29 -39 -6 -39 -6 13 -8 51 -1 52 -1
52 29 0 36 -2 37 -15 8z"/>
<path d="M3088 958 c-3 -22 -7 -23 -153 -28 l-150 -6 161 -2 161 -2 -5 30 c-5
36 -9 38 -14 8z"/>
<path d="M1338 923 c6 -2 18 -2 25 0 6 3 1 5 -13 5 -14 0 -19 -2 -12 -5z"/>
<path d="M2010 305 l0 -75 60 0 c71 0 81 18 13 22 l-48 3 -3 63 c-4 88 -22 78
-22 -13z"/>
<path d="M2497 305 c-19 -59 -22 -75 -11 -75 8 0 14 5 14 10 0 14 53 13 68 -2
22 -22 26 3 8 60 -10 31 -20 63 -22 70 -2 6 -10 12 -18 12 -8 0 -23 -29 -39
-75z m53 -17 c0 -10 -7 -18 -15 -18 -17 0 -18 4 -8 38 4 18 8 20 14 10 5 -7 9
-21 9 -30z"/>
<path d="M2940 305 l0 -75 49 0 c27 0 53 6 59 13 6 6 10 35 10 62 0 27 -4 56
-10 62 -6 7 -32 13 -59 13 l-49 0 0 -75z m95 30 c0 -5 -17 -11 -37 -13 -30 -3
-38 0 -38 13 0 13 8 16 38 13 20 -2 37 -7 37 -13z m0 -65 c0 -23 -69 -20 -73
3 -3 16 2 18 35 15 26 -2 38 -8 38 -18z"/>
</g>
</svg>
